<svg width="256" height="256" viewBox="0 0 256 256" fill="none" xmlns="http://www.w3.org/2000/svg">
<g clip-path="url(#clip0_303_2)">
<path d="M217.6 0H38.4C17.1923 0 0 17.1923 0 38.4V217.6C0 238.808 17.1923 256 38.4 256H217.6C238.808 256 256 238.808 256 217.6V38.4C256 17.1923 238.808 0 217.6 0Z" fill="#4C7380"/>
<path d="M203.704 168.858C201.196 168.858 198.738 167.608 197.304 165.325C185.646 146.826 171.546 133.202 155.387 124.826C141.757 117.76 129.311 115.645 117.274 113.603C102.385 111.073 86.9888 108.457 72.0742 96.3175C59.6787 86.2311 50.601 72.1613 45.0867 54.4973C43.8426 50.514 46.0646 46.2746 50.048 45.0304C54.0314 43.7863 58.2707 46.0084 59.5149 49.9917C64.128 64.768 71.5622 76.4109 81.6128 84.5927C93.4451 94.2234 105.661 96.297 119.803 98.6983C132.372 100.833 146.616 103.25 162.34 111.406C180.915 121.037 196.982 136.463 210.089 157.266C212.316 160.799 211.256 165.463 207.724 167.69C206.52 168.452 205.124 168.857 203.699 168.858H203.704Z" fill="white"/>
<path d="M153.738 224.788C151.967 224.788 150.185 224.169 148.751 222.904C129.469 205.957 118.636 187.725 116.547 168.719C115.016 154.767 118.451 143.145 121.769 131.912C125.404 119.619 129.162 106.906 127.135 89.4874C126.1 80.6093 123.735 71.808 120.09 63.3242C118.441 59.4893 120.218 55.0451 124.052 53.3965C127.887 51.7478 132.332 53.5245 133.98 57.3594C138.199 67.1846 140.948 77.4093 142.152 87.7414C144.532 108.232 140.14 123.09 136.264 136.202C133.1 146.903 130.371 156.145 131.569 167.076C133.233 182.211 142.367 197.181 158.725 211.558C161.859 214.313 162.166 219.09 159.411 222.228C157.916 223.928 155.827 224.799 153.733 224.799L153.738 224.788Z" fill="white"/>
<path d="M122.891 144.609L170.327 121.851L174.998 131.587L127.562 154.345L122.891 144.609Z" fill="white"/>
<path d="M126.89 171.883L188.341 141.03L193.186 150.68L131.735 181.533L126.89 171.883Z" fill="white"/>
<path d="M88.0762 91.2302L133.959 70.6962L138.37 80.5523L92.4871 101.086L88.0762 91.2302Z" fill="white"/>
</g>
<defs>
<clipPath id="clip0_303_2">
<rect width="256" height="256" fill="white"/>
</clipPath>
</defs>
</svg>
